Coordinates
nRows=181
nColumns=2
inDegrees=yes
endheader
time	ankle_angle_r	
2.68733	  9.582633	
2.74982	  9.686135	
2.81232	  9.660946	
2.87482	  9.681952	
2.93731	  9.752849	
2.99981	  9.782934	
3.0623	  9.818830	
3.1248	  9.802877	
3.1873	  9.720601	
3.24979	  9.681076	
3.31229	  9.676290	
3.37478	  9.703865	
3.43728	  9.757710	
3.49978	  9.767954	
3.56227	  9.768530	
3.62477	  9.750454	
3.68726	  9.688621	
3.74976	  9.670513	
3.81226	  9.679540	
3.87475	  9.692822	
3.93725	  9.751549	
3.99974	  9.776210	
4.06224	  9.733350	
4.12474	  9.682405	
4.18723	  9.645683	
4.24973	  9.630296	
4.31222	  9.612603	
4.37472	  9.621279	
4.43722	  9.667575	
4.49971	  9.669031	
4.56221	  9.661792	
4.6247	  9.680030	
4.6872	  9.650020	
4.7497	  9.613159	
4.81219	  9.608457	
4.87469	  9.586012	
4.93718	  9.599042	
4.99968	  9.684721	
5.06218	  9.760452	
5.12467	  9.769717	
5.18717	  9.723069	
5.24966	  9.694980	
5.31216	  9.694949	
5.37466	  9.673523	
5.43715	  9.699907	
5.49965	  9.760734	
5.56214	  9.777143	
5.62464	  9.790077	
5.68714	  9.760891	
5.74963	  9.682023	
5.81213	  9.635116	
5.87462	  9.611559	
5.93712	  9.661347	
5.99962	  9.746635	
6.06211	  9.737099	
6.12461	  9.726688	
6.1871	  9.737728	
6.2496	  9.698166	
6.3121	  9.685851	
6.37459	  9.695307	
6.43709	  9.698600	
6.49958	  9.705517	
6.56208	  9.679800	
6.62458	  9.663277	
6.68707	  9.636373	
6.74957	  9.576487	
6.81206	  9.573262	
6.87456	  9.596983	
6.93706	  9.625309	
6.99955	  9.679408	
7.06205	  9.686550	
7.12454	  9.676093	
7.18704	  9.679213	
7.24954	  9.647728	
7.31203	  9.657532	
7.37453	  9.707883	
7.43702	  9.697342	
7.49952	  9.695869	
7.56202	  9.746016	
7.62451	  9.776858	
7.68701	  9.777050	
7.7495	  9.726222	
7.812	  9.664680	
7.8745	  9.657340	
7.93699	  9.634653	
7.99949	  9.610932	
8.06198	  9.637085	
8.12448	  9.662989	
8.18698	  9.688323	
8.24947	  9.673585	
8.31197	  9.605561	
8.37446	  9.578519	
8.43696	  9.589434	
8.49946	  9.613581	
8.56195	  9.649290	
8.62445	  9.686847	
8.68694	  9.742203	
8.74944	  9.720274	
8.81194	  9.628765	
8.87443	  9.628482	
8.93693	  9.659862	
8.99942	  9.691386	
9.06192	  9.765647	
9.12442	  9.765426	
9.18691	  9.751965	
9.24941	  9.775693	
9.3119	  9.706704	
9.3744	  9.644778	
9.4369	  9.665266	
9.49939	  9.659146	
9.56189	  9.646969	
9.62438	  9.672531	
9.68688	  9.685909	
9.74938	  9.637233	
9.81187	  9.567252	
9.87437	  9.565048	
9.93686	  9.585793	
9.99936	  9.601053	
10.0619	  9.677093	
10.1244	  9.749131	
10.1868	  9.764222	
10.2493	  9.773131	
10.3118	  9.772070	
10.3743	  9.749065	
10.4368	  9.688923	
10.4993	  9.637965	
10.5618	  9.701199	
10.6243	  9.779964	
10.6868	  9.768131	
10.7493	  9.743596	
10.8118	  9.695604	
10.8743	  9.618457	
10.9368	  9.591803	
10.9993	  9.604246	
11.0618	  9.654153	
11.1243	  9.696331	
11.1868	  9.659365	
11.2493	  9.639198	
11.3118	  9.650526	
11.3743	  9.619696	
11.4368	  9.584926	
11.4993	  9.560047	
11.5618	  9.588037	
11.6243	  9.684464	
11.6868	  9.741917	
11.7492	  9.761600	
11.8117	  9.765862	
11.8742	  9.730046	
11.9367	  9.702825	
11.9992	  9.692172	
12.0617	  9.708151	
12.1242	  9.748847	
12.1867	  9.739917	
12.2492	  9.716580	
12.3117	  9.707825	
12.3742	  9.676259	
12.4367	  9.655321	
12.4992	  9.629274	
12.5617	  9.612160	
12.6242	  9.659892	
12.6867	  9.687439	
12.7492	  9.666411	
12.8117	  9.650495	
12.8742	  9.621538	
12.9367	  9.606681	
12.9992	  9.616449	
13.0617	  9.607353	
13.1242	  9.628941	
13.1867	  9.690979	
13.2492	  9.728375	
13.3116	  9.742088	
13.3741	  9.739135	
13.4366	  9.744578	
13.4991	  9.750083	
13.5616	  9.684173	
13.6241	  9.650170	
13.6866	  9.721881	
13.7491	  9.752231	
13.8116	  9.741145	
13.8741	  9.711058	
13.9366	  9.552487	
